<svg xmlns="http://www.w3.org/2000/svg"
 xmlns:xlink="http://www.w3.org/1999/xlink"
 width="23px" height="16px"  viewBox="0 0 23 16">
<path fill-rule="evenodd"  fill="#00aaef"
 d="M10.849487,13.999878 C10.849487,13.999878 11.064697,14.000244 11.064697,14.000244 C11.064697,14.000244 14.638123,6.9161377 14.638123,6.9161377 C14.638123,6.9161377 20.643372,10.67334 20.643372,10.67334 C20.643372,10.67334 21.0,10.685181 21.0,10.685181 C21.0,10.685181 17.937439,1.0001221 17.937439,1.0001221 C17.937439,1.0001221 15.863525,1.2873535 15.863525,1.2873535 C15.863525,1.2873535 17.661072,6.6831055 17.661072,6.6831055 C17.661072,6.6831055 13.65448,4.307251 13.65448,4.307251 C13.65448,4.307251 12.922241,5.8426514 12.922241,5.8426514 C12.922241,5.8426514 12.923584,5.843506 12.923584,5.843506 C12.923584,5.843506 10.980408,9.78894 10.980408,9.78894 C10.980408,9.78894 9.339722,6.307007 9.339722,6.307007 C9.339722,6.307007 7.588318,7.348877 7.588318,7.348877 C7.588318,7.348877 10.849487,13.999878 10.849487,13.999878 ZM1.3568115,10.67334 C1.3568115,10.67334 11.0,4.6933594 11.0,4.6933594 C11.0,4.6933594 12.442139,5.5533447 12.442139,5.5533447 C12.442139,5.5533447 13.155334,4.0111084 13.155334,4.0111084 C13.155334,4.0111084 11.122253,2.80542 11.122253,2.80542 C11.122253,2.80542 11.0,2.80542 11.0,2.80542 C11.0,2.80542 10.877686,2.80542 10.877686,2.80542 C10.877686,2.80542 4.3390503,6.6831055 4.3390503,6.6831055 C4.3390503,6.6831055 6.1365356,1.2873535 6.1365356,1.2873535 C6.1365356,1.2873535 4.062744,1.0001221 4.062744,1.0001221 C4.062744,1.0001221 1.0,10.685181 1.0,10.685181 C1.0,10.685181 1.3568115,10.67334 1.3568115,10.67334 Z"/>
</svg>