<?xml version="1.0" standalone="no"?>
<!DOCTYPE svg PUBLIC "-//W3C//DTD SVG 20010904//EN"
 "http://www.w3.org/TR/2001/REC-SVG-20010904/DTD/svg10.dtd">
<svg version="1.0" xmlns="http://www.w3.org/2000/svg"
 width="225.000000pt" height="225.000000pt" viewBox="0 0 225.000000 225.000000"
 preserveAspectRatio="xMidYMid meet">
<metadata>
Created by potrace 1.15, written by Peter Selinger 2001-2017
</metadata>
<g transform="translate(0.000000,225.000000) scale(0.100000,-0.100000)"
fill="#c70101" stroke="none">
<path d="M493 2100 c-213 -38 -389 -194 -464 -410 -29 -86 -32 -256 -5 -345
19 -63 56 -143 88 -188 l19 -27 228 0 228 0 77 188 c78 188 106 232 147 232
11 0 30 -10 42 -22 12 -13 78 -148 147 -300 68 -153 127 -278 130 -278 3 0 53
97 112 215 115 230 136 256 186 239 21 -7 41 -36 95 -141 l68 -133 262 0 263
0 21 28 c69 93 107 214 107 342 1 178 -52 308 -174 430 -122 123 -244 174
-410 174 -175 0 -284 -49 -436 -196 l-100 -97 -88 88 c-97 98 -178 151 -274
181 -75 23 -198 32 -269 20z"/>
<path d="M800 1269 c-5 -13 -34 -82 -64 -154 l-54 -130 -203 -5 -202 -5 403
-412 c222 -227 411 -415 421 -418 9 -3 28 -3 42 0 15 4 186 172 427 418 l403
412 -234 3 -235 2 -48 98 -48 97 -114 -228 c-120 -239 -134 -257 -188 -243
-31 8 -37 18 -181 341 -59 132 -109 242 -111 244 -2 2 -8 -7 -14 -20z"/>
</g>
</svg>
